PathFileType	4	(X/Y/Z)	SUBJ82_3_walk_RCNL2025.trc
DataRate	CameraRate	NumFrames	NumMarkers	Units	OrigDataRate	OrigDataStartFrame	OrigNumFrames
100	100	5	25	mm	100	1	225
Frame#	Time	R_Shoulder			L_Shoulder			C7			J_Notch			R_Elbow			L_Elbow			R_Wrist			L_Wrist			R_Asis			L_Asis			Sacral			Thoracic			Sternum			R_Thigh_Lateral			R_Knee_Lateral			R_Shank_Lateral			R_Ankle_Lateral			R_Heel			R_Toe			L_Thigh_Lateral			L_Knee_Lateral			L_Shank_Lateral			L_Ankle_Lateral			L_Heel			L_Toe		
		X1	Y1	Z1	X2	Y2	Z2	X3	Y3	Z3	X4	Y4	Z4	X5	Y5	Z5	X6	Y6	Z6	X7	Y7	Z7	X8	Y8	Z8	X9	Y9	Z9	X10	Y10	Z10	X11	Y11	Z11	X12	Y12	Z12	X13	Y13	Z13	X14	Y14	Z14	X15	Y15	Z15	X16	Y16	Z16	X17	Y17	Z17	X18	Y18	Z18	X19	Y19	Z19	X20	Y20	Z20	X21	Y21	Z21	X22	Y22	Z22	X23	Y23	Z23	X24	Y24	Z24	X25	Y25	Z25
1	0.00000000	-1981.210327	1406.699219	444.685730	-1956.162842	1421.298462	35.830086	-2017.709839	1513.352539	243.298843	-1903.771484	1388.597412	244.322708	-2071.640625	1072.289795	502.314209	-2054.810791	1083.199951	-36.549927	-2015.877563	817.842682	481.788589	-1985.044922	829.616333	-32.733932	-1933.333984	970.841370	378.852570	-1921.581299	997.031372	112.253395	-2108.892334	999.960815	225.085648	-2122.167480	1278.632812	228.569702	-1882.994385	1212.743896	245.291946	-1969.294678	545.313660	438.926910	-1973.060547	468.954895	398.253448	-2149.058105	344.662201	441.474701	-2285.975830	229.230072	341.409332	-2327.387939	243.484528	289.257996	-2239.305420	97.575912	338.561157	-1930.803101	554.638977	54.342434	-1916.019409	480.856201	100.068588	-1916.855591	250.111954	69.672104	-1932.776001	63.309864	139.485367	-1977.567993	45.970779	190.621017	-1794.781860	37.922523	169.022964
2	0.01000000	-1975.496460	1407.501221	444.650421	-1949.754639	1422.718384	35.850784	-2011.420898	1514.354858	243.334137	-1897.550049	1389.607422	244.428207	-2066.512451	1073.180542	501.592834	-2045.912842	1084.278809	-37.793770	-2011.475342	818.585968	481.009155	-1973.994202	831.361847	-34.171436	-1926.985596	972.367310	378.286865	-1915.629150	997.793457	111.619392	-2102.700928	1001.176636	225.075455	-2115.889893	1279.635620	228.047699	-1876.853516	1213.764160	245.044754	-1958.335938	547.008240	438.525360	-1961.203735	470.743500	397.763184	-2135.771973	344.625763	440.931152	-2270.980225	226.978958	340.901489	-2313.043457	240.439026	288.907837	-2221.567383	96.558479	337.751343	-1928.616211	554.819031	54.504604	-1914.459595	480.935364	100.232239	-1916.100830	250.118240	69.799019	-1932.666504	63.311298	139.645706	-1977.515381	45.998249	190.740875	-1794.769653	37.898453	169.042740
3	0.02000000	-1967.882202	1408.526978	444.594788	-1941.247559	1424.548828	35.876656	-2003.090088	1515.626953	243.375412	-1889.291138	1390.895874	244.548431	-2059.720947	1074.333008	500.641907	-2034.178345	1085.683472	-39.412239	-2005.610535	819.552979	479.973465	-1959.311768	833.716064	-36.023058	-1918.552124	974.324036	377.538788	-1907.686646	998.769531	110.783722	-2094.470459	1002.719116	225.076736	-2107.551025	1280.901489	227.363174	-1868.697754	1215.066650	244.720993	-1943.873291	549.263062	438.022797	-1945.628784	473.087402	397.100159	-2118.137207	344.338898	440.197998	-2250.830566	223.669510	340.205536	-2293.698486	235.994522	288.418060	-2197.695557	95.057831	336.675323	-1925.731812	555.068420	54.706039	-1912.414307	481.046936	100.441154	-1915.111450	250.129715	69.958420	-1932.531982	63.324112	139.835968	-1977.438232	46.040600	190.893021	-1794.746704	37.864201	169.060349
4	0.03000000	-1958.502930	1409.730103	444.515961	-1930.808838	1426.717407	35.906910	-1992.891846	1517.107056	243.419144	-1879.158203	1392.405273	244.671631	-2051.406006	1075.702393	499.484344	-2019.883789	1087.365845	-41.354855	-1998.386658	820.708344	478.702988	-1941.286499	836.648010	-38.219363	-1908.197388	976.629333	376.626343	-1897.887451	999.914551	109.766701	-2084.358398	1004.513855	225.096191	-2097.312744	1282.366089	226.535278	-1858.685181	1216.592896	244.329300	-1926.246216	552.030090	437.443359	-1926.739868	475.915710	396.270233	-2096.496582	343.668640	439.283600	-2225.786621	219.195114	339.322876	-2269.557617	230.022949	287.780090	-2167.988281	93.029449	335.365570	-1922.215210	555.386902	54.936352	-1909.936890	481.192352	100.687759	-1913.920532	250.150803	70.140755	-1932.380005	63.354225	140.041779	-1977.335205	46.101444	191.070129	-1794.709106	37.818916	169.070816
5	0.04000000	-1947.629883	1411.038818	444.413300	-1918.755615	1429.110840	35.941132	-1981.148438	1518.705322	243.461578	-1867.462769	1394.050537	244.786011	-2041.824829	1077.216431	498.161072	-2003.515137	1089.244873	-43.541775	-1990.009338	821.992004	477.239761	-1920.474976	840.078156	-40.655778	-1896.235718	979.157837	375.583405	-1886.506836	1001.157227	108.604668	-2072.668213	1006.452271	225.138550	-2085.485840	1283.936523	225.596771	-1847.117310	1218.254639	243.883957	-1906.059448	555.211670	436.816345	-1905.225586	479.104340	395.290100	-2071.495605	342.477661	438.209900	-2196.456055	213.515015	338.267212	-2241.152588	222.483185	286.988586	-2133.174805	90.467674	333.889069	-1918.180176	555.768555	55.183449	-1907.115112	481.371185	100.962318	-1912.586670	250.189575	70.331711	-1932.220215	63.407631	140.247681	-1977.207520	46.185337	191.261627	-1794.653687	37.762062	169.069031
